<?xml version="1.0" encoding="utf-8" ?>
<svg xmlns="http://www.w3.org/2000/svg" xmlns:xlink="http://www.w3.org/1999/xlink" viewBox="580 30 435 435">
  <!-- Square crop of the lens O, with black background -->
  <rect x="580" y="30" width="435" height="435" fill="#050505"/>
  <defs>
    <linearGradient id="gradient_0" gradientUnits="userSpaceOnUse" x1="923.55511" y1="355.29691" x2="662.2193" y2="121.33361">
      <stop offset="0" stop-color="#CC9D40"/>
      <stop offset="1" stop-color="#EDC26B"/>
    </linearGradient>
    <linearGradient id="gradient_1" gradientUnits="userSpaceOnUse" x1="830.53741" y1="271.49463" x2="754.77277" y2="202.35178">
      <stop offset="0" stop-color="#D7A94C"/>
      <stop offset="1" stop-color="#F1C974"/>
    </linearGradient>
  </defs>

  <!-- Outer arc -->
  <path fill="url(#gradient_0)" d="M780.278 63.1342C786.809 61.904 807.081 62.6914 813.807 63.7449C975.49 89.0693 1029.37 275.127 900.807 378.373C897.013 373.009 890.148 365.225 885.787 360.02C886.385 359.615 886.973 359.195 887.551 358.76C920.086 334.743 941.674 298.711 947.507 258.684C958.842 181.578 902.753 107.248 827.775 91.2728C822.029 90.0487 816.038 89.2329 810.22 88.3916C800.639 87.4476 790.991 87.3994 781.401 88.2477C655.711 98.9211 592.062 243.629 677.427 339.596C684.128 347.129 692.521 353.747 700.256 360.246C695.193 366.262 690.255 372.381 685.443 378.6C676.884 371.682 668.755 365.16 661.156 357.156C635.71 329.832 619.693 295.066 615.458 257.964C605.811 172.053 665.093 88.9739 748.606 68.5248C759.86 65.7692 768.82 64.419 780.278 63.1342Z"/>

  <!-- Middle ring -->
  <path fill="#E0B359" d="M785.92 116.434C792.41 115.656 801.387 116.071 807.841 116.852C841.895 120.867 872.889 138.46 893.801 165.645C923.42 203.463 927.791 251.665 905.824 294.318C895.482 314.399 884.566 325.091 867.154 338.692C862.656 332.834 857.726 327.007 853.01 321.296C856.601 318.725 860.372 316.03 863.683 313.12C883.318 295.826 895.259 271.42 896.866 245.299C898.523 218.457 888.472 193.215 870.813 173.237C852.325 152.65 826.404 140.276 798.776 138.848C792.228 138.66 785.675 138.971 779.174 139.778C751.956 143.342 727.289 157.633 710.653 179.475C683.442 214.999 681.993 263.031 709.835 298.724C717.502 308.554 723.752 313.855 733.655 321.409L718.782 338.895C716.076 336.824 713.244 334.638 710.663 332.428C685.482 311.211 669.816 280.811 667.147 247.984C661.972 179.187 718.392 121.337 785.92 116.434Z"/>

  <!-- Eye / iris -->
  <path fill="url(#gradient_1)" d="M789.2 183.975C800.726 183.028 805.574 184.241 816.008 188.41C814.696 188.889 813.408 189.43 812.147 190.032C807.115 192.438 802.914 196.183 801.07 201.579C799.573 206.027 799.935 210.89 802.073 215.067C804.274 219.427 808.33 222.692 812.953 224.183C817.546 225.69 822.551 225.295 826.851 223.087C833.22 219.744 835.67 214.08 837.67 207.642C852.927 235.173 848.938 262.191 822.468 280.725C816.643 284.176 810.224 286.505 803.541 287.59C788.657 290.028 774.252 286.881 761.979 277.94C750.971 269.922 743.635 257.825 741.613 244.354C739.427 230.488 742.922 216.325 751.308 205.071C760.739 192.525 774.002 186.191 789.2 183.975Z"/>

  <!-- FOV — F -->
  <path fill="#E0B359" d="M727.188 361.773C734.267 361.856 753.722 361.004 759.395 362.583L759.966 363.82L758.817 365.516C756.091 367.322 737.348 366.514 732.397 366.511C732.57 372.415 732.51 378.545 732.523 384.47L732.955 388.945C732.189 394.988 733.657 403.001 731.586 409.139C729.756 409.717 730.494 409.756 728.799 409.061C726.22 403.916 727.225 369.985 727.188 361.773Z"/>
  <path fill="#E0B359" d="M732.523 384.47C738.887 384.232 751.037 383.124 756.216 386L756.346 387.134C751.921 390.113 738.773 389.08 732.955 388.945L732.523 384.47Z"/>

  <!-- FOV — O -->
  <path fill="#E0B359" d="M784.501 361.827C797.68 358.37 811.169 366.245 814.64 379.426C818.112 392.606 810.256 406.109 797.085 409.598C783.891 413.092 770.366 405.217 766.888 392.014C763.41 378.812 771.299 365.291 784.501 361.827Z"/>
  <path fill="#050505" d="M785.385 366.884C792.129 364.991 799.37 366.868 804.347 371.8C809.323 376.733 811.266 383.959 809.436 390.723C807.605 397.487 802.283 402.746 795.499 404.494C785.167 407.155 774.618 401.001 771.846 390.694C769.074 380.387 775.112 369.768 785.385 366.884Z"/>

  <!-- FOV — V -->
  <path fill="#E0B359" d="M818.15 361.64C824.297 361.534 824.428 361.283 827.056 367.142C832.238 378.697 836.884 390.489 841.872 402.14C846.543 392.475 855.598 369.03 860.866 361.984C863 361.28 862.305 361.151 863.999 361.996C864.904 364.337 864.434 364.09 863.279 366.915C858.678 378.028 853.693 389.048 848.838 400.058C847.145 403.898 845.159 409.019 840.454 408.831C836.007 406.078 821.718 369.324 818.15 361.64Z"/>
</svg>
